HIERARCHY
ROOT Hips
{
	OFFSET -3.958830 18.904000 13.208200
	CHANNELS 6 Xposition Yposition Zposition Zrotation Yrotation Xrotation 
	JOINT LHipJoint
	{
		OFFSET 0.000000 0.000000 0.000000
		CHANNELS 3 Zrotation Yrotation Xrotation
		JOINT LeftUpLeg
		{
			OFFSET 1.800000 -1.400000 0.085000
			CHANNELS 3 Zrotation Yrotation Xrotation
			JOINT LeftLeg
			{
				OFFSET 2.215000 -6.000000 0.000000
				CHANNELS 3 Zrotation Yrotation Xrotation
				JOINT LeftFoot
				{
					OFFSET 2.500000 -6.900000 0.000000
					CHANNELS 3 Zrotation Yrotation Xrotation
					JOINT LeftToeBase
					{
						OFFSET 0.200000 -0.500000 1.950000
						CHANNELS 3 Zrotation Yrotation Xrotation
						End Site
						{
							OFFSET 0.000000 0.000000 0.000000
						}
					}
				}
			}
		}
	}
	JOINT RHipJoint
	{
		OFFSET 0.000000 0.000000 0.000000
		CHANNELS 3 Zrotation Yrotation Xrotation
		JOINT RightUpLeg
		{
			OFFSET -1.800000 -1.400000 0.085000
			CHANNELS 3 Zrotation Yrotation Xrotation
			JOINT RightLeg
			{
				OFFSET -2.215000 -6.000000 0.000000
				CHANNELS 3 Zrotation Yrotation Xrotation
				JOINT RightFoot
				{
					OFFSET -2.500000 -6.900000 0.000000
					CHANNELS 3 Zrotation Yrotation Xrotation
					JOINT RightToeBase
					{
						OFFSET -0.200000 -0.500000 1.950000
						CHANNELS 3 Zrotation Yrotation Xrotation
						End Site
						{
							OFFSET 0.000000 0.000000 0.000000
						}
					}
				}
			}
		}
	}
	JOINT LowerBack
	{
		OFFSET 0.000000 0.000000 0.000000
		CHANNELS 3 Zrotation Yrotation Xrotation
		JOINT Spine
		{
			OFFSET -0.087000 1.940000 -0.288900
			CHANNELS 3 Zrotation Yrotation Xrotation
			JOINT Spine1
			{
				OFFSET 0.000000 1.950000 0.060000
				CHANNELS 3 Zrotation Yrotation Xrotation
				JOINT Neck
				{
					OFFSET 0.000000 0.000000 0.000000
					CHANNELS 3 Zrotation Yrotation Xrotation
					JOINT Neck1
					{
						OFFSET 0.000000 1.600000 0.340000
						CHANNELS 3 Zrotation Yrotation Xrotation
						JOINT Head
						{
							OFFSET 0.000000 1.667000 -0.240000
							CHANNELS 3 Zrotation Yrotation Xrotation
							End Site
							{
								OFFSET 0.000000 0.000000 0.000000
							}
						}
					}
				}
				JOINT LeftShoulder
				{
					OFFSET 0.000000 0.000000 0.000000
					CHANNELS 3 Zrotation Yrotation Xrotation
					JOINT LeftArm
					{
						OFFSET 2.700000 1.550000 -0.730000
						CHANNELS 3 Zrotation Yrotation Xrotation
						JOINT LeftForeArm
						{
							OFFSET 5.450000 0.000000 0.000000
							CHANNELS 3 Zrotation Yrotation Xrotation
							JOINT LeftHand
							{
								OFFSET 3.450000 0.000000 0.000000
								CHANNELS 3 Zrotation Yrotation Xrotation
								JOINT LeftHandIndex1
								{
									OFFSET 0.750000 0.000000 0.000000
									CHANNELS 3 Zrotation Yrotation Xrotation
									End Site
									{
										OFFSET 0.000000 0.000000 0.000000
									}
								}
							}
						}
					}
				}
				JOINT RightShoulder
				{
					OFFSET 0.000000 0.000000 0.000000
					CHANNELS 3 Zrotation Yrotation Xrotation
					JOINT RightArm
					{
						OFFSET -2.700000 1.550000 -0.730000
						CHANNELS 3 Zrotation Yrotation Xrotation
						JOINT RightForeArm
						{
							OFFSET -5.450000 0.000000 0.000000
							CHANNELS 3 Zrotation Yrotation Xrotation
							JOINT RightHand
							{
								OFFSET -3.450000 0.000000 0.000000
								CHANNELS 3 Zrotation Yrotation Xrotation
								JOINT RightHandIndex1
								{
									OFFSET -0.750000 0.000000 0.000000
									CHANNELS 3 Zrotation Yrotation Xrotation
									End Site
									{
										OFFSET 0.000000 0.000000 0.000000
									}
								}
							}
						}
					}
				}
			}
		}
	}
}
MOTION
Frames: 9
Frame Time: 0.016667
-0.657230 16.749450 -4.492350 -2.231087 -13.132223 9.510445 -15.319457 13.549652 3.191088 9.687631 -2.938497 -21.509743 -8.755966 5.797177 10.897152 -1.162717 4.701563 3.215704 -0.823200 -0.922040 -1.186240 18.135592 -10.226294 2.278083 -11.151284 1.319097 -22.434593 4.271549 -4.392033 11.953122 0.583238 -3.103488 3.596155 -0.070760 1.436390 -0.155990 -3.050540 -3.596848 -6.585616 6.083176 0.469723 2.992229 2.472538 1.061501 0.538566 -2.305239 -4.486476 -4.838973 -7.754471 0.869610 16.786687 -2.317570 -2.174320 3.034270 -15.385225 5.360701 0.129007 -69.032518 -22.887907 4.891789 72.556056 -57.627812 -45.309250 -4.438066 1.550177 0.098780 0.842450 -1.021150 0.110130 20.459710 -3.820833 1.492379 61.931267 -8.766332 -10.166864 -10.537200 9.078308 -1.126595 1.775498 -0.965683 -0.957540 0.900560 1.062430 -0.028890 
-0.670730 16.747630 -4.489530 -2.242595 -13.364189 9.605845 -15.320522 13.554857 3.205502 9.915984 -2.924786 -21.517186 -8.975775 5.865785 10.884142 -1.137322 4.726195 3.201834 -0.826560 -0.921880 -1.199850 18.135261 -10.215498 2.269314 -11.004797 1.362630 -22.424318 3.997134 -4.313305 11.943968 0.586592 -3.077433 3.610668 -0.079490 1.437130 -0.154700 -3.047217 -3.628962 -6.585710 6.076799 0.078400 3.031053 2.328994 0.691016 0.020717 -2.302882 -4.640236 -4.693170 -8.057027 1.608991 16.616332 -1.876420 -1.832850 3.184810 -15.934574 5.894337 0.073251 -68.449133 -21.262802 4.460634 77.575288 -57.565691 -48.973649 -4.438015 1.492094 0.093040 0.838540 -1.021430 0.113950 21.035611 -4.278091 1.257569 61.128786 -8.584763 -10.170365 -10.760068 10.030207 -1.236971 1.772120 -0.970286 -0.947250 0.889160 1.061280 -0.020490 
-0.696560 16.749160 -4.478690 -2.201070 -13.537045 9.633971 -15.326606 13.618825 3.232071 10.217420 -2.874993 -21.376574 -9.164182 5.944162 10.845805 -1.092475 4.747905 3.189537 -0.846850 -0.949860 -1.219730 18.120977 -10.197598 2.249570 -10.838059 1.362787 -22.115536 3.540111 -4.214761 11.858297 0.579602 -3.022451 3.645105 -0.121520 1.428420 -0.155390 -3.010465 -3.784900 -6.611267 6.023600 -0.882913 3.374258 1.991962 -0.204904 -1.354798 -2.161611 -4.940939 -4.424293 -8.791620 3.080125 16.734721 -1.030730 -1.006290 3.325970 -16.977782 7.063058 -0.051341 -67.328684 -17.939801 3.890826 87.565538 -56.427833 -56.544409 -4.467642 1.466292 0.117040 0.814870 -1.005860 0.115670 21.901603 -5.398045 0.773012 59.817872 -8.335347 -10.297017 -10.339416 11.669110 -1.346027 1.774199 -0.932724 -0.937380 0.872420 1.063560 -0.015570 
-0.735080 16.753900 -4.466080 -2.369340 -14.405475 9.752901 -15.318287 13.682308 3.251580 10.761092 -2.747815 -21.040198 -9.364165 6.045655 10.743025 -1.033760 4.767790 3.174179 -0.860270 -0.966780 -1.226580 18.117856 -10.184335 2.252376 -10.357027 1.453664 -21.822914 2.954796 -4.029755 11.606392 0.562247 -2.916291 3.695453 -0.166660 1.401920 -0.164630 -3.005782 -3.903224 -6.650926 6.248312 -1.960601 3.914356 1.463563 -1.219568 -3.415260 -2.009161 -5.439432 -3.930450 -9.913705 5.085900 16.856902 0.122020 0.143370 2.987530 -18.273290 9.154463 -0.352188 -65.720020 -13.567920 3.153918 98.003871 -54.633176 -65.094112 -4.508699 1.608942 0.156990 0.768660 -0.970820 0.116090 22.990842 -7.293303 -0.065463 58.164394 -7.782305 -10.388174 -9.786387 14.125521 -1.437557 1.782991 -0.877809 -0.923970 0.858690 1.054720 -0.011150 
-0.783280 16.759120 -4.453860 -2.611573 -15.674364 9.910590 -15.307144 13.736298 3.259118 11.370602 -2.560637 -20.501321 -9.473469 6.110322 10.430700 -0.975420 4.786113 3.162564 -0.890770 -1.005230 -1.243710 18.116322 -10.176884 2.277489 -9.652464 1.608837 -21.519007 2.354140 -3.806156 11.174828 0.556101 -2.804679 3.754870 -0.220410 1.384040 -0.173570 -3.003393 -3.967961 -6.700798 6.353365 -2.826693 4.395595 1.129800 -2.058115 -5.511067 -1.840949 -5.831894 -3.482825 -10.832342 7.171631 17.104244 1.184680 1.424920 3.029330 -19.279078 11.454543 -0.534671 -64.182487 -8.921864 2.064940 106.726051 -53.074878 -72.944751 -4.542270 1.830702 0.191100 0.732950 -0.945990 0.110630 23.780758 -9.379743 -0.979871 56.583160 -7.053905 -10.366544 -8.001871 16.643722 -1.365108 1.791577 -0.813691 -0.916500 0.842990 1.056510 -0.009020 
-0.838250 16.750650 -4.441140 -2.782275 -17.132715 10.458857 -15.300352 13.738232 3.237631 11.746996 -2.417507 -20.255358 -9.374628 6.104684 10.126319 -0.942116 4.801238 3.171671 -0.926680 -1.044660 -1.290630 18.129309 -10.159375 2.304419 -8.815896 1.874922 -21.735402 1.470292 -3.492425 10.833073 0.580228 -2.713787 3.807815 -0.249520 1.427430 -0.174160 -3.027430 -3.938150 -6.668897 6.391246 -3.513300 4.226748 0.820982 -2.813853 -7.254466 -1.863345 -6.009200 -2.887508 -11.139132 9.460053 16.144331 2.291990 2.446630 3.769400 -19.005822 14.487287 -0.671590 -63.328403 -4.288764 0.771467 112.717966 -51.354580 -77.577373 -4.581006 2.057733 0.177410 0.745440 -0.968240 0.121270 23.674292 -12.260208 -2.226478 55.903822 -6.215432 -10.333267 -5.731571 20.089782 -1.187007 1.771697 -0.790889 -0.922020 0.843850 1.072810 0.011110 
-0.888460 16.738170 -4.435040 -2.962665 -18.351825 11.049859 -15.297848 13.719135 3.193374 11.995689 -2.310132 -20.257874 -8.991969 6.056231 10.035417 -0.920431 4.799415 3.196654 -0.979890 -1.098930 -1.366260 18.143029 -10.144834 2.340996 -8.100637 2.143182 -22.089161 1.003891 -3.284743 10.612418 0.621796 -2.676231 3.843874 -0.275140 1.504510 -0.178450 -3.052782 -3.856315 -6.616968 6.324755 -3.947874 3.777212 0.749907 -3.346707 -8.223906 -1.920754 -5.924822 -2.551520 -10.958676 11.506329 15.064666 3.442630 2.982220 5.325590 -18.145740 16.806509 -0.543876 -63.202081 -0.111757 -0.828498 115.982063 -49.769888 -79.194568 -4.614577 2.214923 0.136590 0.781690 -1.020390 0.138440 23.056965 -14.523829 -3.045649 56.088770 -5.905833 -10.498066 -3.505071 24.754935 -0.809622 1.728881 -0.805995 -0.938050 0.852960 1.101800 0.043400 
-0.943480 16.733100 -4.430360 -3.254138 -19.245908 11.511961 -15.292228 13.717026 3.153877 12.305720 -2.204979 -20.292244 -8.495659 6.003074 10.088110 -0.896469 4.777678 3.218979 -1.024690 -1.151920 -1.419210 18.151590 -10.132021 2.395208 -7.385482 2.364845 -22.129243 1.007920 -3.179288 10.196489 0.647993 -2.643668 3.880282 -0.310880 1.546130 -0.184800 -3.071646 -3.799635 -6.612029 6.372840 -4.309751 3.680109 0.837710 -3.768380 -9.341946 -1.927404 -5.908599 -2.309511 -10.946161 13.034320 14.418778 4.200700 3.277360 6.406250 -17.285496 19.001633 -0.496165 -62.680133 4.114050 -2.551182 117.130644 -49.160823 -79.007950 -4.616308 2.274291 0.119000 0.795210 -1.050560 0.146860 22.313906 -16.574100 -3.450464 56.450195 -6.394224 -10.888720 -1.165502 30.409564 -0.035452 1.678375 -0.833049 -0.946020 0.851790 1.120970 0.062980 
-0.997640 16.731890 -4.429620 -3.428661 -19.760044 11.720118 -15.300198 13.781352 3.137056 12.455896 -2.127901 -20.502333 -7.860359 5.972124 10.491893 -0.868880 4.734001 3.242433 -1.085940 -1.224520 -1.461880 18.132682 -10.126363 2.445958 -6.769648 2.525706 -22.223492 1.163801 -3.200337 10.369392 0.668047 -2.606403 3.917475 -0.368100 1.559180 -0.200870 -3.014593 -3.860620 -6.661288 5.939656 -4.492377 4.044559 1.322706 -3.929892 -10.452466 -1.765633 -5.892917 -2.392370 -10.927724 13.830903 14.371288 4.486520 3.435090 7.192070 -16.102493 20.712415 -0.376948 -62.290786 7.944755 -4.224635 116.258638 -49.406878 -77.162626 -4.595438 2.229364 0.125690 0.789090 -1.059540 0.138800 20.993790 -18.102354 -3.242293 57.457875 -7.725033 -11.810737 1.005828 36.700570 1.011776 1.629007 -0.857502 -0.956070 0.849660 1.141010 0.070560 
